<svg width="1280" height="453" viewBox="0 0 1280 453" fill="none" xmlns="http://www.w3.org/2000/svg">
<rect width="1280" height="453" fill="#3294EE"/>
<path d="M807 322.5C793 322.9 767.333 305.667 757.5 298.5L759 383H884.5C899.7 383 906 369.167 906.5 361.5L906 331C895 324.333 868.9 310.9 856.5 310.5C841 310 824.5 322 807 322.5Z" fill="white"/>
<path d="M427.235 25.938H644.389C657.032 25.938 667.287 36.1922 667.287 48.8361V185.499C667.287 198.142 657.032 208.397 644.389 208.397H427.235C414.591 208.397 404.337 198.142 404.337 185.499V48.8361C404.337 36.1922 414.591 25.938 427.235 25.938Z" fill="white"/>
<path d="M609.786 240.037C609.786 240.037 589.671 243.969 575.545 250.443C561.449 256.916 548.775 264.387 548.775 264.387C548.775 264.387 562.115 230.811 564.686 223.854C567.257 216.897 572.339 208.579 572.339 208.579C572.339 208.579 565.805 200.139 565.684 195.995C565.684 195.995 552.284 194.301 543.209 187.858C543.209 187.858 536.645 185.106 535.466 182.474C535.466 182.474 522.066 172.522 523.003 163.69C523.003 163.69 513.596 178.572 502.465 208.397C491.303 238.192 484.8 250.261 489.912 282.99C495.054 315.719 523.215 324.491 529.083 325.882C534.982 327.274 545.448 330.208 556.065 328.211C566.682 326.215 576.573 321.859 576.573 321.859L573.488 345.725L561.963 451.776H714.567L708.638 392.096C708.638 392.096 714.779 407.583 724.67 413.482C734.561 419.38 747.265 420.076 758.669 413.966C770.073 407.855 775.638 395.998 776.727 386.954C777.816 377.91 777.423 365.568 773.703 349.022C769.982 332.476 758.185 281.961 758.185 281.961L723.188 265.204C723.188 265.204 710.937 246.752 692.092 242.457L673.247 238.162L609.756 240.007L609.786 240.037Z" fill="url(#paint0_linear_3197_41181)"/>
<path d="M757.759 283.261C757.759 283.261 758.969 271.797 753.555 263.388C748.14 254.949 744.027 250.411 742.635 247.931C741.244 245.451 741.849 234.591 740.911 230.447C739.943 226.303 738.642 219.951 731.262 221.191C723.881 222.432 721.855 232.081 723.034 238.342C724.184 244.634 728.691 259.365 728.419 261.392C728.177 263.418 716.41 270.799 710.148 273.128C703.887 275.457 691.909 279.722 688.793 284.532C685.677 289.341 686.766 295.663 692.786 296.238C692.786 296.238 685.042 300.291 686.615 306.008C688.188 311.725 693.512 310.999 693.512 310.999C693.512 310.999 692.211 319.408 700.741 320.467C709.301 321.526 725.605 315.657 731.232 312.602C736.858 309.577 746.749 304.405 751.014 298.174C755.279 291.943 757.881 284.622 757.699 283.292L757.759 283.261Z" fill="white"/>
<path d="M613.958 185.227C613.958 185.227 601.042 182.777 600.679 194.06C600.316 205.343 611.841 205.252 615.259 202.953C615.259 202.953 615.047 229.36 641.242 228.967C667.438 228.543 668.164 206.704 668.164 206.704V203.437C668.164 203.437 680.021 207.127 682.108 199.323C684.195 191.519 682.864 188.434 679.839 186.74C676.815 185.046 669.101 185.56 669.101 185.56V182.868C669.101 182.868 660.117 173.158 645.901 167.441C631.684 161.724 624.455 160.908 624.455 160.908C624.455 160.908 618.738 175.457 614.775 178.573L613.958 185.197V185.227Z" fill="white"/>
<path d="M623.155 218.712V226.093L609.785 240.037L619.162 291.641L641.97 258.821L664.807 291.641L673.942 238.978L660.784 225.73L660.875 219.377L623.155 218.712Z" fill="white"/>
<path d="M868.285 255.162C868.285 265.567 859.846 273.976 849.471 273.976C839.096 273.976 830.656 265.537 830.656 255.162C830.656 244.786 839.096 236.347 849.471 236.347C859.846 236.347 868.285 244.786 868.285 255.162Z" fill="white"/>
<path d="M403.096 352.561H642.876C655.52 352.561 665.774 362.815 665.774 375.459V417.776C665.774 430.42 655.52 440.674 642.876 440.674H403.096C390.452 440.674 380.198 430.42 380.198 417.776V375.459C380.198 362.815 390.452 352.561 403.096 352.561Z" fill="white"/>
<path d="M436.431 396.633C436.431 405.012 429.625 411.788 421.277 411.788C412.928 411.788 406.122 405.012 406.122 396.633C406.122 388.255 412.928 381.479 421.277 381.479C429.625 381.479 436.431 388.255 436.431 396.633Z" fill="#2E3338"/>
<path d="M404.367 69.5864H667.257" stroke="#2E3338" stroke-width="1.55118"/>
<path d="M610.57 183.775C610.57 183.775 608.422 171.434 608.543 167.895C608.694 164.356 611.265 154.555 614.139 153.103C616.982 151.682 617.981 151.5 617.981 151.5C617.981 151.5 624.484 141.034 639.638 140.943C654.793 140.853 665.864 146.842 670.371 154.888C674.878 162.904 673.94 175.185 673.94 178.784C673.94 182.414 673.093 184.834 673.093 184.834L669.131 185.076L668.828 182.868C668.828 182.868 656.063 170.375 641.907 165.898C627.751 161.422 624.484 160.938 624.484 160.938C624.484 160.938 619.977 174.156 614.804 178.603L614.593 185.076L610.57 183.775Z" fill="#096DD9"/>
<path d="M570.189 180.114C570.189 180.114 579.234 184.833 583.166 190.943C587.098 197.053 588.127 211.361 580.202 211.905C572.307 212.45 568.768 203.285 567.77 200.623C566.771 197.961 566.439 194.724 560.298 192.637C554.158 190.55 540.455 188.614 537.975 184.531C535.494 180.447 531.35 178.027 531.562 164.748C531.562 164.748 527.297 151.015 533.619 145.177C539.941 139.339 547.17 139.521 560.086 139.884C573.003 140.247 582.319 133.804 588.217 131.293C594.146 128.783 603.402 123.882 608.514 126.635C613.656 129.388 609.936 136.526 609.936 136.526C609.936 136.526 614.503 138.129 615.895 141.88C617.286 145.631 612.023 152.83 612.023 152.83C612.023 152.83 615.048 153.647 615.865 158.729C616.651 163.81 609.27 168.499 602.767 170.253C596.264 172.008 580.202 174.065 576.814 174.337C573.426 174.609 568.012 176.878 570.129 180.145L570.189 180.114Z" fill="white"/>
<path d="M441.254 48.1711C441.254 53.2831 437.11 57.4271 431.998 57.4271C426.886 57.4271 422.742 53.2831 422.742 48.1711C422.742 43.0591 426.886 38.915 431.998 38.915C437.11 38.915 441.254 43.0591 441.254 48.1711Z" fill="white"/>
<path d="M529.594 157.641C529.594 157.641 523.786 158.699 522.969 163.721C522.153 168.742 531.106 179.692 533.405 180.871H535.008C535.008 180.871 530.501 170.708 531.984 165.172L529.564 157.671L529.594 157.641Z" fill="#2E3338"/>
<path d="M548.833 190.279C548.833 190.279 554.762 190.37 558.815 192.033C562.838 193.727 564.623 194.907 564.623 194.907C564.623 194.907 556.516 195.512 548.863 190.279H548.833Z" fill="#2E3338"/>
<path d="M574.182 174.852C574.182 174.852 569.342 176.394 569.796 179.117C569.796 179.117 578.265 184.864 579.868 186.558C581.472 188.252 582.621 189.401 582.621 189.401C582.621 189.401 582.772 181.627 574.182 174.852Z" fill="#2E3338"/>
<path d="M669.131 185.077L673.094 184.835C673.094 184.835 673.91 182.385 673.941 178.785C673.941 175.155 674.878 162.905 670.371 154.889C666.59 148.143 658.121 142.82 646.505 141.368C654.34 144.756 662.658 150.079 660.964 156.915C658.484 166.897 623.396 160.243 623.396 160.243L624.273 161.513C624.454 160.969 627.751 161.453 641.908 165.929C656.064 170.406 668.829 182.899 668.829 182.899L669.131 185.107V185.077Z" fill="white"/>
<path d="M905.967 332.322C905.544 332.231 872.784 315.473 872.784 315.473C864.98 311.481 851.883 310.513 843.564 313.326L819.003 321.644C810.261 324.608 796.71 323.187 788.785 318.468L762.468 302.769C762.015 302.497 761.863 301.922 762.136 301.468C762.408 301.015 762.983 300.863 763.436 301.136L789.752 316.804C797.284 321.281 810.14 322.642 818.428 319.829L842.99 311.511C851.701 308.546 865.464 309.575 873.662 313.779L906.421 330.507C906.874 330.749 907.056 331.324 906.844 331.777C906.663 332.11 906.36 332.291 905.997 332.291L905.967 332.322Z" fill="#2E3338"/>
<path d="M843.603 280.266C832.683 280.266 823.82 271.403 823.82 260.514C823.82 249.624 832.683 240.731 843.603 240.731C854.522 240.731 863.355 249.594 863.355 260.514C863.355 271.434 854.492 280.266 843.603 280.266ZM843.603 242.607C833.742 242.607 825.696 250.623 825.696 260.484C825.696 270.345 833.712 278.361 843.603 278.361C853.494 278.361 861.48 270.345 861.48 260.484C861.48 250.623 853.464 242.607 843.603 242.607Z" fill="#2E3338"/>
<path d="M664.805 292.579C664.018 292.185 641.937 260.485 641.937 260.485L619.916 292.185C618.222 291.822 608.331 240.249 608.331 240.249C608.573 239.402 622.457 225.427 622.457 225.427C623.939 225.609 641.907 256.946 641.907 256.946L659.995 225.276C661.478 225.094 674.545 238.343 674.545 238.343C674.817 239.16 665.682 291.822 665.682 291.822C664.896 292.609 664.835 292.609 664.744 292.609L664.805 292.579ZM610.297 240.37L619.674 289.282L640.848 258.791L622.971 227.635L610.327 240.37H610.297ZM643.056 258.791L664.26 289.251L672.911 239.311L661.054 227.272L643.056 258.791Z" fill="#2E3338"/>
<path d="M647.444 214.174C645.206 214.174 643.482 213.781 643.331 213.75C642.816 213.629 642.514 213.115 642.635 212.631C642.756 212.117 643.27 211.815 643.754 211.936C643.815 211.936 649.864 213.327 653.676 210.695C655.339 209.546 656.338 207.731 656.64 205.341C656.701 204.827 657.154 204.464 657.699 204.525C658.213 204.585 658.576 205.069 658.515 205.583C658.152 208.548 656.882 210.786 654.734 212.268C652.496 213.811 649.713 214.234 647.444 214.234V214.174Z" fill="#2E3338"/>
<path d="M548.499 329.602C540.484 329.602 533.557 328.12 527.114 326.305C503.52 319.62 489.243 299.384 486.883 269.347C485.22 247.931 493.145 226.969 501.1 209.274C504.125 202.528 506.363 196.963 508.481 191.609C512.443 181.717 515.831 173.187 522.879 161.148C523.151 160.695 523.726 160.544 524.18 160.816C524.633 161.088 524.785 161.663 524.512 162.116C517.555 174.004 514.167 182.504 510.235 192.304C508.087 197.689 505.849 203.254 502.794 210.03C494.929 227.514 487.095 248.234 488.728 269.196C490.997 298.416 504.821 318.047 527.598 324.49C540.211 328.059 554.791 330.237 576.056 322.191C576.54 322.01 577.084 322.252 577.266 322.736C577.447 323.22 577.205 323.764 576.721 323.946C565.771 328.09 556.546 329.602 548.469 329.602H548.499Z" fill="#2E3338"/>
<path d="M545.839 278.574C545.174 278.484 544.841 278 544.902 277.485C546.928 263.692 552.191 251.774 554.43 246.662C554.823 245.785 555.126 245.059 555.337 244.575L563.232 224.883C565.319 219.681 567.89 214.871 570.613 209.789L571.49 208.126C571.732 207.672 572.307 207.491 572.76 207.733C573.214 207.975 573.396 208.549 573.154 209.003L572.276 210.667C569.584 215.688 567.043 220.437 564.987 225.579L557.092 245.271C556.88 245.785 556.577 246.511 556.154 247.419C553.764 252.863 548.743 264.237 546.747 277.758C546.686 278.211 546.263 278.574 545.809 278.574H545.839Z" fill="#2E3338"/>
<path d="M628.69 185.318C629.446 185.197 629.93 185.53 630.172 188.222C630.414 191.247 629.627 191.761 628.962 191.731C628.296 191.731 627.601 190.763 627.631 188.615C627.661 186.467 627.722 185.439 628.69 185.288V185.318Z" fill="#2E3338"/>
<path d="M610.325 205.07C606.786 204.858 604.154 203.587 602.248 201.44C600.343 199.292 599.405 196.509 599.587 193.666C599.768 190.792 601.039 188.191 603.216 186.285C605.364 184.38 608.086 183.412 610.99 183.623C612.14 183.684 613.229 183.926 614.287 184.349C614.771 184.531 615.013 185.075 614.832 185.559C614.65 186.043 614.076 186.285 613.622 186.104C612.745 185.771 611.837 185.559 610.9 185.499C608.54 185.348 606.272 186.134 604.487 187.707C602.702 189.28 601.643 191.428 601.492 193.787C601.341 196.146 602.127 198.445 603.7 200.2C605.273 201.984 607.421 203.043 609.811 203.194C611.414 203.255 613.017 202.952 614.439 202.226C614.892 201.984 615.467 202.166 615.709 202.619C615.951 203.073 615.77 203.648 615.316 203.89C613.773 204.676 612.079 205.1 610.355 205.1L610.325 205.07Z" fill="#2E3338"/>
<path d="M608.179 200.26C607.121 199.473 607.181 198.899 607.605 198.566L613.231 194.21L606.909 189.552C606.485 189.249 606.395 188.644 606.727 188.251C607.03 187.828 607.635 187.737 608.058 188.07L615.378 193.484C615.378 194.997 608.784 200.109 608.784 200.109C608.603 200.23 608.421 200.29 608.21 200.29L608.179 200.26Z" fill="#2E3338"/>
<path d="M673.669 205.07C671.944 205.07 670.25 204.646 668.708 203.86C668.254 203.618 668.073 203.043 668.315 202.589C668.557 202.135 669.131 201.954 669.585 202.196C671.007 202.952 672.61 203.285 674.213 203.164C676.572 203.013 678.75 201.954 680.323 200.169C681.896 198.385 682.683 196.116 682.531 193.757C682.229 188.887 677.934 185.196 673.124 185.469C672.126 185.529 671.128 185.771 670.22 186.164C669.736 186.376 669.192 186.164 668.98 185.68C668.768 185.196 668.98 184.652 669.464 184.44C670.583 183.956 671.763 183.684 673.003 183.623C678.962 183.23 684.014 187.767 684.407 193.666C684.77 199.595 680.263 204.707 674.364 205.07C674.122 205.07 673.911 205.07 673.699 205.07H673.669Z" fill="#2E3338"/>
<path d="M675.817 200.259C675.243 200.078 668.618 194.966 668.618 194.966C668.618 193.453 675.938 188.069 675.938 188.069C676.362 187.767 676.936 187.857 677.269 188.251C677.572 188.674 677.481 189.249 677.088 189.551L670.766 194.21L676.392 198.565C676.815 198.868 676.876 199.473 676.573 199.896C676.392 200.138 676.12 200.259 675.817 200.259Z" fill="#2E3338"/>
<path d="M740.882 419.046C729.024 419.046 716.229 413.148 707.79 392.458C707.608 391.974 707.82 391.429 708.304 391.218C708.788 391.036 709.333 391.248 709.544 391.732C718.256 413.087 732.594 421.073 752.195 415.447C785.135 405.979 776.091 364.175 773.096 350.443C768.741 330.358 756.944 280.659 756.853 280.145C756.732 279.631 757.034 279.147 757.549 279.026C758.063 278.905 758.547 279.208 758.668 279.722C758.789 280.206 770.586 329.964 774.942 350.049C778.027 364.206 787.374 407.31 752.709 417.262C749.049 418.32 745.026 419.016 740.912 419.016L740.882 419.046Z" fill="#2E3338"/>
<path d="M643.812 229.872H640.061C635.342 229.872 628.566 228.904 623.182 224.276C619.038 220.737 616.285 215.02 614.803 206.853C613.805 201.469 613.593 184.348 613.684 178.782C613.684 178.268 614.108 177.845 614.622 177.845C615.166 177.845 615.559 178.268 615.559 178.813C615.469 184.832 615.741 201.499 616.648 206.52C618.07 214.264 620.611 219.588 624.392 222.854C629.353 227.119 635.644 227.997 640.061 227.997H643.812C648.228 227.997 654.519 227.089 659.48 222.854C663.292 219.588 665.802 214.264 667.224 206.52C668.222 201.106 668.252 187.615 668.162 182.896C668.162 182.382 668.555 181.959 669.099 181.928C669.734 181.928 670.037 182.321 670.067 182.866C670.128 187.645 670.097 201.287 669.099 206.853C667.587 215.02 664.864 220.737 660.72 224.276C655.336 228.904 648.561 229.872 643.842 229.872H643.812Z" fill="#2E3338"/>
<path d="M623.154 227.03C622.61 227.03 622.217 226.606 622.217 226.092V223.037C622.247 222.523 622.671 222.099 623.185 222.099C623.699 222.099 624.122 222.523 624.122 223.037V226.092C624.092 226.606 623.669 227.03 623.154 227.03Z" fill="#2E3338"/>
<path d="M660.784 226.667C660.239 226.667 659.816 226.213 659.846 225.699L659.937 223.007C659.937 222.492 660.3 222.039 660.905 222.099C661.419 222.099 661.843 222.553 661.812 223.067L661.722 225.759C661.722 226.273 661.298 226.667 660.784 226.667Z" fill="#2E3338"/>
<path d="M673.064 185.499C672.398 185.408 672.065 184.924 672.126 184.41C674.213 171.04 672.217 162.812 670.009 156.49C665.381 143.272 645.961 140.398 633.65 142.546C624.333 144.179 619.161 151.711 619.1 151.772C616.771 152.528 615.259 153.284 614.019 154.343C613.625 154.675 613.02 154.645 612.688 154.252C612.355 153.859 612.385 153.254 612.778 152.921C614.17 151.711 615.834 150.834 617.739 150.38C618.858 148.837 624.182 142.273 633.287 140.67C646.233 138.402 666.711 141.608 671.733 155.855C674.032 162.389 676.089 170.889 673.941 184.682C673.88 185.136 673.457 185.468 673.003 185.468L673.064 185.499Z" fill="#2E3338"/>
<path d="M610.751 185.467C609.752 184.438 607.544 176.483 607.605 168.195C607.605 167.681 608.028 167.257 608.542 167.257C609.087 167.257 609.48 167.681 609.48 168.195C609.42 176.211 611.628 184.166 611.628 184.257C611.779 184.771 611.477 185.285 610.962 185.406C610.872 185.406 610.781 185.437 610.72 185.437L610.751 185.467Z" fill="#2E3338"/>
<path d="M561.992 452.743C561.387 452.682 560.993 452.228 561.054 451.714L562.808 434.866C562.869 434.352 563.262 433.958 563.837 434.019C564.351 434.079 564.714 434.533 564.684 435.047L562.929 451.896C562.869 452.38 562.476 452.743 561.992 452.743Z" fill="#2E3338"/>
<path d="M573.487 346.693C572.852 346.633 572.489 346.149 572.55 345.634L578.72 297.872C578.781 297.358 579.265 296.995 579.779 297.055C580.293 297.116 580.656 297.6 580.596 298.114L574.425 345.876C574.364 346.36 573.971 346.693 573.487 346.693Z" fill="#2E3338"/>
<path d="M714.594 452.744C714.11 452.744 713.716 452.381 713.656 451.897C707.243 383.899 702.373 343.427 699.439 321.436C699.379 320.922 699.742 320.438 700.256 320.377C700.8 320.317 701.254 320.68 701.315 321.194C704.249 343.185 709.119 383.687 715.531 451.716C715.592 452.23 715.199 452.684 714.684 452.744C714.684 452.744 714.624 452.744 714.594 452.744Z" fill="#2E3338"/>
<path d="M622.186 182.444C621.369 182.202 621.127 181.657 621.309 181.173C623.003 176.515 629.446 175.184 633.257 176.031C633.771 176.152 634.074 176.636 633.983 177.15C633.862 177.665 633.408 177.997 632.864 177.876C629.718 177.181 624.334 178.36 623.094 181.809C622.942 182.202 622.61 182.414 622.216 182.414L622.186 182.444Z" fill="#2E3338"/>
<path d="M660.028 182.444C657.88 178.36 652.496 177.181 649.38 177.876C648.836 177.967 648.382 177.665 648.261 177.15C648.14 176.636 648.473 176.152 648.957 176.031C652.799 175.184 659.211 176.515 660.905 181.173C661.087 181.657 660.845 182.202 660.33 182.383C660.24 182.414 660.119 182.444 659.998 182.444H660.028Z" fill="#2E3338"/>
<path d="M621.733 157.155C620.976 156.762 617.921 152.467 617.921 152.467C617.619 152.043 617.71 151.468 618.133 151.166C618.556 150.863 619.131 150.954 619.434 151.378L622.459 155.673C622.761 156.096 622.67 156.671 622.217 156.974C622.065 157.095 621.854 157.155 621.672 157.155H621.733Z" fill="#2E3338"/>
<path d="M724.122 266.171C706.003 245.057 687.794 241.065 673.849 239.915C673.335 239.885 672.942 239.431 673.002 238.887C673.032 238.373 673.456 237.979 674.031 238.04C688.338 239.22 707.032 243.303 724.878 264.628C725.211 265.021 725.151 265.626 724.757 265.959C724.576 266.11 724.364 266.171 724.152 266.171H724.122Z" fill="#2E3338"/>
<path d="M695.931 312.059C693.087 312.059 690.728 311.545 689.004 310.547C687.28 309.549 686.191 308.097 685.737 306.221C684.194 299.93 692.029 295.574 692.362 295.423C692.815 295.181 693.39 295.332 693.632 295.786C693.874 296.239 693.723 296.814 693.239 297.056C693.178 297.086 686.342 300.867 687.522 305.768C687.854 307.159 688.641 308.187 689.911 308.913C693.027 310.728 698.714 310.607 705.973 308.55C715.955 305.707 734.135 296.633 734.286 296.542C734.74 296.33 735.314 296.481 735.556 296.965C735.798 297.419 735.587 297.994 735.133 298.236C734.377 298.599 716.621 307.492 706.488 310.365C702.495 311.485 698.925 312.059 695.901 312.059H695.931Z" fill="#2E3338"/>
<path d="M703.162 321.405C699.926 321.405 697.324 320.83 695.751 319.499C690.307 314.932 693.15 310.546 693.18 310.485C693.483 310.062 694.057 309.941 694.481 310.213C694.904 310.516 695.025 311.09 694.753 311.514C694.662 311.665 692.908 314.599 696.991 318.047C701.317 321.677 718.226 318.289 732.473 310.939C740.156 306.977 746.508 302.107 751.318 296.48C755.946 291.066 757.761 283.504 756.399 275.185C755.19 267.744 751.923 260.757 746.992 254.949C746.538 254.405 746.085 253.891 745.601 253.376C743.272 250.805 741.094 248.385 740.791 244.513C740.67 242.88 740.61 241.035 740.549 239.129C740.338 231.809 740.126 223.521 735.105 222.311C731.868 221.525 729.055 222.16 727.058 224.217C723.398 227.937 722.763 235.53 725.304 245.058C726.181 248.355 727.149 251.592 728.117 254.858L729.176 258.488C729.418 259.335 729.781 260.515 729.327 261.664C729.025 262.451 728.42 262.995 727.845 263.479C721.644 268.682 714.536 272.705 706.701 275.397C696.175 279.057 689.974 283.05 688.25 287.255C687.493 289.069 687.614 290.915 688.582 292.851C689.036 293.758 689.974 294.423 691.426 294.877C697.778 296.874 713.719 293.909 730.779 284.532C731.233 284.29 731.807 284.441 732.049 284.895C732.291 285.349 732.14 285.924 731.686 286.166C716.078 294.756 698.897 299.172 690.851 296.662C688.885 296.057 687.554 295.028 686.889 293.667C685.679 291.247 685.558 288.827 686.495 286.529C688.461 281.719 694.874 277.515 706.066 273.613C713.658 270.981 720.585 267.079 726.605 262.027C727.028 261.695 727.391 261.332 727.542 260.969C727.754 260.454 727.542 259.789 727.361 259.003L726.302 255.373C725.334 252.106 724.366 248.839 723.489 245.542C720.767 235.348 721.584 227.09 725.697 222.886C728.147 220.375 731.656 219.528 735.528 220.466C741.941 222.039 742.183 231.083 742.394 239.069C742.455 240.944 742.485 242.729 742.636 244.362C742.878 247.569 744.784 249.686 746.962 252.106C747.446 252.62 747.9 253.165 748.384 253.709C753.556 259.759 756.944 267.079 758.214 274.853C759.666 283.715 757.7 291.792 752.709 297.66C747.748 303.468 741.215 308.489 733.29 312.573C723.489 317.624 711.299 321.345 703.132 321.345L703.162 321.405Z" fill="#2E3338"/>
<path d="M615.38 209.333H585.011C584.497 209.333 584.073 208.91 584.073 208.396C584.073 207.881 584.497 207.458 585.011 207.458H615.38C615.895 207.458 616.318 207.881 616.318 208.396C616.318 208.91 615.895 209.333 615.38 209.333Z" fill="#2E3338"/>
<path d="M667.258 140.761C666.744 140.761 666.32 140.337 666.32 139.823V52.0119C666.32 38.1581 655.037 26.8754 641.184 26.8754H430.443C416.589 26.8754 405.306 38.1581 405.306 52.0119V92.9078C405.306 93.422 404.883 93.8455 404.368 93.8455C403.854 93.8455 403.431 93.422 403.431 92.9078V52.0119C403.4 37.1296 415.53 25 430.443 25H641.184C656.066 25 668.195 37.1296 668.195 52.0119V139.793C668.195 140.307 667.772 140.731 667.258 140.731V140.761Z" fill="#2E3338"/>
<path d="M476.931 209.335H430.409C415.497 209.335 403.397 197.206 403.397 182.323C403.397 181.809 403.821 181.386 404.335 181.386C404.849 181.386 405.273 181.809 405.273 182.323C405.273 196.177 416.556 207.46 430.409 207.46H476.931C477.446 207.46 477.869 207.883 477.869 208.398C477.869 208.912 477.446 209.335 476.931 209.335Z" fill="#2E3338"/>
<path d="M883.444 384.413H778.179C777.665 384.413 777.241 383.989 777.241 383.475C777.241 382.961 777.665 382.537 778.179 382.537H883.444C895.392 382.537 905.101 372.828 905.101 360.879V282.052C905.101 281.538 905.525 281.114 906.039 281.114C906.553 281.114 906.977 281.538 906.977 282.052V360.879C906.977 373.856 896.42 384.413 883.444 384.413Z" fill="#2E3338"/>
<path d="M906.036 243.999C905.522 243.999 905.099 243.576 905.099 243.062V234.743C905.099 222.795 895.389 213.085 883.441 213.085H714.685C702.737 213.085 693.027 222.795 693.027 234.743V242.487C693.027 243.001 692.603 243.425 692.089 243.425C691.575 243.425 691.151 243.001 691.151 242.487V234.743C691.151 221.767 701.708 211.21 714.685 211.21H883.441C896.417 211.21 906.974 221.767 906.974 234.743V243.062C906.974 243.576 906.551 243.999 906.036 243.999Z" fill="#2E3338"/>
<path d="M636.918 436.289H396.533C383.557 436.289 373 425.732 373 412.756V369.47C373 356.494 383.557 345.937 396.533 345.937H471.005C471.519 345.937 471.943 346.361 471.943 346.875C471.943 347.389 471.519 347.812 471.005 347.812H396.533C384.585 347.812 374.875 357.522 374.875 369.47V412.756C374.875 424.704 384.585 434.414 396.533 434.414H636.918C648.866 434.414 658.576 424.704 658.576 412.756V369.47C658.576 357.522 648.866 347.812 636.918 347.812H540.365C539.85 347.812 539.427 347.389 539.427 346.875C539.427 346.361 539.85 345.937 540.365 345.937H636.918C649.894 345.937 660.451 356.494 660.451 369.47V412.756C660.451 425.732 649.894 436.289 636.918 436.289Z" fill="#2E3338"/>
<path d="M531.592 165.352C530.503 164.142 525.573 149.956 534.95 142.636C540.153 138.552 546.475 138.734 553.19 138.915C558.514 139.066 564.533 139.218 570.855 137.312C575.695 135.86 580.807 133.561 585.798 131.383C596.052 126.846 604.915 122.914 609.845 126.302C612.144 127.874 612.931 130.869 611.902 134.317C609.361 142.999 596.808 152.648 575.211 153.344C574.696 153.344 574.243 152.95 574.243 152.436C574.243 151.922 574.636 151.468 575.15 151.468C598.925 150.712 608.424 139.581 610.087 133.803C610.874 131.141 610.39 128.963 608.756 127.874C604.673 125.092 595.87 128.994 586.524 133.138C581.502 135.376 576.33 137.675 571.369 139.157C564.775 141.154 558.574 140.972 553.129 140.851C546.505 140.67 540.788 140.518 536.099 144.178C527.811 150.682 532.409 164.021 532.47 164.173C532.651 164.657 532.379 165.201 531.895 165.383C531.804 165.413 531.683 165.443 531.592 165.443V165.352Z" fill="#2E3338"/>
<path d="M581.986 161.844C579.959 161.844 577.872 161.753 575.755 161.602C575.241 161.572 574.847 161.118 574.878 160.604C574.908 160.09 575.301 159.666 575.876 159.727C594.932 161.179 611.629 155.583 614.745 146.72C615.653 144.118 615.622 142.062 614.654 140.61C613.112 138.28 609.633 138.038 609.603 138.038C609.089 138.008 608.695 137.555 608.726 137.04C608.756 136.526 609.21 136.163 609.724 136.163C609.905 136.163 614.17 136.466 616.257 139.581C617.588 141.578 617.679 144.179 616.56 147.385C613.475 156.157 599.379 161.874 582.016 161.874L581.986 161.844Z" fill="#2E3338"/>
<path d="M553.099 174.398C552.615 174.398 552.191 174.004 552.161 173.52C552.161 173.006 552.524 172.552 553.038 172.522C569.675 171.645 571.702 155.371 571.732 155.22C571.792 154.706 572.246 154.373 572.76 154.403C573.275 154.464 573.638 154.917 573.577 155.432C573.577 155.613 571.339 173.43 553.099 174.398H553.038H553.099Z" fill="#2E3338"/>
<path d="M578.57 213.086C577.844 213.086 577.088 212.965 576.362 212.723C570.736 210.847 567.197 202.045 565.957 198.355C564.928 195.36 560.572 193.727 557.971 192.728C555.37 191.73 552.587 191.125 549.925 190.551C548.292 190.188 546.658 189.825 545.025 189.401C539.761 187.979 535.89 184.773 533.5 179.903C531.322 175.457 530.354 170.103 530.657 164.355C530.657 163.841 531.141 163.478 531.655 163.478C532.169 163.508 532.562 163.962 532.532 164.476C532.23 169.891 533.137 174.942 535.164 179.086C537.342 183.503 540.699 186.286 545.478 187.586C547.082 188.01 548.685 188.373 550.288 188.736C553.041 189.341 555.884 189.976 558.606 191.004C561.51 192.093 566.41 193.938 567.711 197.78C568.618 200.442 572.006 209.305 576.937 210.968C578.6 211.513 580.264 211.21 582.049 210.031C584.953 208.064 585.709 205.07 585.83 202.892C586.132 197.538 583.047 190.853 578.54 187.011C575.999 184.864 572.944 182.746 570.403 181.385C569.889 181.113 568.921 180.599 568.649 179.57C568.467 178.905 568.649 178.27 568.83 177.846C569.526 176.092 570.948 174.791 572.793 174.216C574.063 173.823 575.394 173.763 576.665 173.672C583.561 173.309 589.883 172.462 595.691 171.161C600.41 170.103 605.854 168.62 610.422 165.717C611.965 164.718 614.112 163.176 614.717 161.089C616.26 155.916 611.239 153.768 611.027 153.678C610.543 153.466 610.331 152.921 610.513 152.438C610.724 151.954 611.269 151.742 611.753 151.923C614.112 152.891 618.135 156.188 616.502 161.603C615.715 164.265 613.205 166.11 611.42 167.259C606.611 170.345 600.984 171.887 596.084 172.976C590.186 174.307 583.743 175.154 576.937 175.517C575.545 175.578 574.426 175.638 573.367 175.971C572.037 176.364 571.069 177.241 570.585 178.481C573.942 181.083 577.088 183.291 579.72 185.529C584.65 189.704 588.008 197.024 587.675 202.952C587.463 206.703 585.86 209.668 583.077 211.573C581.565 212.602 580.052 213.116 578.54 213.116L578.57 213.086Z" fill="#2E3338"/>
<path d="M600.889 380.118H462.684C462.17 380.118 461.746 379.694 461.746 379.18C461.746 378.666 462.17 378.242 462.684 378.242H600.889C601.403 378.242 601.827 378.666 601.827 379.18C601.827 379.694 601.403 380.118 600.889 380.118Z" fill="#2E3338"/>
<path d="M600.889 403.439H462.684C462.17 403.439 461.746 403.016 461.746 402.502C461.746 401.987 462.17 401.564 462.684 401.564H600.889C601.403 401.564 601.827 401.987 601.827 402.502C601.827 403.016 601.403 403.439 600.889 403.439Z" fill="#2E3338"/>
<path d="M414.622 407.22C405.729 407.22 398.53 399.991 398.53 391.128C398.53 382.265 405.76 375.036 414.622 375.036C423.485 375.036 430.715 382.265 430.715 391.128C430.715 399.991 423.485 407.22 414.622 407.22ZM414.622 376.881C406.788 376.881 400.406 383.263 400.406 391.098C400.406 398.932 406.788 405.314 414.622 405.314C422.457 405.314 428.839 398.932 428.839 391.098C428.839 383.263 422.457 376.881 414.622 376.881Z" fill="#2E3338"/>
<path d="M485.082 57.955C480.088 57.955 476.033 53.9006 476.033 48.9065C476.033 43.9123 480.088 39.8579 485.082 39.8579C490.076 39.8579 494.13 43.9123 494.13 48.9065C494.13 53.9006 490.076 57.955 485.082 57.955ZM485.082 41.4958C481 41.4958 477.698 44.7984 477.698 48.8796C477.698 52.9609 481 56.2635 485.082 56.2635C489.163 56.2635 492.466 52.9609 492.466 48.8796C492.466 44.7984 489.163 41.4958 485.082 41.4958Z" fill="#2E3338"/>
<path d="M457.951 57.6318C453.046 57.6318 449.064 53.6498 449.064 48.7449C449.064 43.8399 453.046 39.8579 457.951 39.8579C462.856 39.8579 466.838 43.8399 466.838 48.7449C466.838 53.6498 462.856 57.6318 457.951 57.6318ZM457.951 41.4665C453.943 41.4665 450.699 44.7101 450.699 48.7185C450.699 52.7269 453.943 55.9705 457.951 55.9705C461.96 55.9705 465.203 52.7269 465.203 48.7185C465.203 44.7101 461.96 41.4665 457.951 41.4665Z" fill="#2E3338"/>
<path d="M430.804 57.955C425.817 57.955 421.742 53.9006 421.742 48.9065C421.742 43.9123 425.791 39.8579 430.804 39.8579C435.818 39.8579 439.839 43.9123 439.839 48.9065C439.839 53.9006 435.791 57.955 430.804 57.955ZM430.804 41.4958C426.729 41.4958 423.431 44.7984 423.431 48.8796C423.431 52.9609 426.729 56.2635 430.804 56.2635C434.879 56.2635 438.177 52.9609 438.177 48.8796C438.177 44.7984 434.879 41.4958 430.804 41.4958Z" fill="#2E3338"/>
<path d="M548.955 264.719C547.896 263.842 548.017 263.267 548.441 262.995C548.713 262.814 576.693 245.36 609.089 239.129C609.603 239.038 610.087 239.371 610.178 239.885C610.268 240.4 609.936 240.884 609.421 240.974C577.358 247.145 549.711 264.417 549.439 264.598C549.288 264.689 549.106 264.75 548.925 264.75L548.955 264.719Z" fill="#2E3338"/>
<path d="M684.559 290.944H674.759C674.245 290.944 673.821 290.52 673.821 290.006C673.821 289.492 674.245 289.068 674.759 289.068H684.559C685.074 289.068 685.497 289.492 685.497 290.006C685.497 290.52 685.074 290.944 684.559 290.944ZM664.958 290.944H655.158C654.644 290.944 654.22 290.52 654.22 290.006C654.22 289.492 654.644 289.068 655.158 289.068H664.958C665.473 289.068 665.896 289.492 665.896 290.006C665.896 290.52 665.473 290.944 664.958 290.944ZM645.357 290.944H635.557C635.043 290.944 634.619 290.52 634.619 290.006C634.619 289.492 635.043 289.068 635.557 289.068H645.357C645.872 289.068 646.295 289.492 646.295 290.006C646.295 290.52 645.872 290.944 645.357 290.944ZM625.756 290.944H615.956C615.442 290.944 615.018 290.52 615.018 290.006C615.018 289.492 615.442 289.068 615.956 289.068H625.756C626.271 289.068 626.694 289.492 626.694 290.006C626.694 290.52 626.271 290.944 625.756 290.944ZM606.155 290.944H596.355C595.841 290.944 595.417 290.52 595.417 290.006C595.417 289.492 595.841 289.068 596.355 289.068H606.155C606.67 289.068 607.093 289.492 607.093 290.006C607.093 290.52 606.67 290.944 606.155 290.944ZM586.554 290.944H576.754C576.24 290.944 575.816 290.52 575.816 290.006C575.816 289.492 576.24 289.068 576.754 289.068H586.554C587.069 289.068 587.492 289.492 587.492 290.006C587.492 290.52 587.069 290.944 586.554 290.944ZM566.953 290.944H557.153C556.639 290.944 556.215 290.52 556.215 290.006C556.215 289.492 556.639 289.068 557.153 289.068H566.953C567.468 289.068 567.891 289.492 567.891 290.006C567.891 290.52 567.468 290.944 566.953 290.944ZM550.468 287.828C549.954 287.828 549.53 287.405 549.53 286.89V277.09C549.53 276.576 549.954 276.152 550.468 276.152C550.982 276.152 551.406 276.576 551.406 277.09V286.89C551.406 287.405 550.982 287.828 550.468 287.828ZM550.468 268.227C549.954 268.227 549.53 267.804 549.53 267.289V257.489C549.53 256.975 549.954 256.551 550.468 256.551C550.982 256.551 551.406 256.975 551.406 257.489V267.289C551.406 267.804 550.982 268.227 550.468 268.227ZM550.468 248.626C549.954 248.626 549.53 248.203 549.53 247.688V237.888C549.53 237.374 549.954 236.95 550.468 236.95C550.982 236.95 551.406 237.374 551.406 237.888V247.688C551.406 248.203 550.982 248.626 550.468 248.626ZM550.468 229.025C549.954 229.025 549.53 228.602 549.53 228.087V218.287C549.53 217.773 549.954 217.349 550.468 217.349C550.982 217.349 551.406 217.773 551.406 218.287V228.087C551.406 228.602 550.982 229.025 550.468 229.025ZM731.263 212.903C730.749 212.903 730.325 212.479 730.325 211.965V202.165C730.325 201.65 730.749 201.227 731.263 201.227C731.777 201.227 732.201 201.65 732.201 202.165V211.965C732.201 212.479 731.777 212.903 731.263 212.903ZM550.468 209.424C549.954 209.424 549.53 209.001 549.53 208.486V198.686C549.53 198.172 549.954 197.748 550.468 197.748C550.982 197.748 551.406 198.172 551.406 198.686V208.486C551.406 209.001 550.982 209.424 550.468 209.424ZM731.263 193.302C730.749 193.302 730.325 192.878 730.325 192.364V182.564C730.325 182.049 730.749 181.626 731.263 181.626C731.777 181.626 732.201 182.049 732.201 182.564V192.364C732.201 192.878 731.777 193.302 731.263 193.302ZM550.468 189.823C549.954 189.823 549.53 189.4 549.53 188.885V179.085C549.53 178.571 549.954 178.147 550.468 178.147C550.982 178.147 551.406 178.571 551.406 179.085V188.885C551.406 189.4 550.982 189.823 550.468 189.823ZM731.263 173.701C730.749 173.701 730.325 173.277 730.325 172.763V162.963C730.325 162.448 730.749 162.025 731.263 162.025C731.777 162.025 732.201 162.448 732.201 162.963V172.763C732.201 173.277 731.777 173.701 731.263 173.701ZM550.468 170.222C549.954 170.222 549.53 169.799 549.53 169.284V159.484C549.53 158.97 549.954 158.546 550.468 158.546C550.982 158.546 551.406 158.97 551.406 159.484V169.284C551.406 169.799 550.982 170.222 550.468 170.222ZM731.263 154.1C730.749 154.1 730.325 153.676 730.325 153.162V149.653H725.909C725.395 149.653 724.971 149.23 724.971 148.716C724.971 148.201 725.395 147.778 725.909 147.778H731.263C731.777 147.778 732.201 148.201 732.201 148.716V153.162C732.201 153.676 731.777 154.1 731.263 154.1ZM550.468 150.621C549.954 150.621 549.53 150.198 549.53 149.683C549.53 148.201 549.954 147.778 550.468 147.778H559.331C559.845 147.778 560.268 148.201 560.268 148.716C560.268 149.23 559.845 149.653 559.331 149.653H551.436C551.436 150.198 551.012 150.591 550.498 150.591L550.468 150.621ZM716.108 149.683H706.308C705.794 149.683 705.37 149.26 705.37 148.746C705.37 148.232 705.794 147.808 706.308 147.808H716.108C716.623 147.808 717.046 148.232 717.046 148.746C717.046 149.26 716.623 149.683 716.108 149.683ZM696.508 149.683H686.707C686.193 149.683 685.769 149.26 685.769 148.746C685.769 148.232 686.193 147.808 686.707 147.808H696.508C697.022 147.808 697.445 148.232 697.445 148.746C697.445 149.26 697.022 149.683 696.508 149.683ZM676.907 149.683H667.106C666.592 149.683 666.168 149.26 666.168 148.746C666.168 148.232 666.592 147.808 667.106 147.808H676.907C677.421 147.808 677.844 148.232 677.844 148.746C677.844 149.26 677.421 149.683 676.907 149.683ZM657.306 149.683H647.505C646.991 149.683 646.567 149.26 646.567 148.746C646.567 148.232 646.991 147.808 647.505 147.808H657.306C657.82 147.808 658.243 148.232 658.243 148.746C658.243 149.26 657.82 149.683 657.306 149.683ZM637.705 149.683H627.904C627.39 149.683 626.966 149.26 626.966 148.746C626.966 148.232 627.39 147.808 627.904 147.808H637.705C638.219 147.808 638.642 148.232 638.642 148.746C638.642 149.26 638.219 149.683 637.705 149.683ZM618.104 149.683H608.303C607.789 149.683 607.365 149.26 607.365 148.746C607.365 148.232 607.789 147.808 608.303 147.808H618.104C618.618 147.808 619.041 148.232 619.041 148.746C619.041 149.26 618.618 149.683 618.104 149.683ZM598.503 149.683H588.702C588.188 149.683 587.764 149.26 587.764 148.746C587.764 148.232 588.188 147.808 588.702 147.808H598.503C599.017 147.808 599.44 148.232 599.44 148.746C599.44 149.26 599.017 149.683 598.503 149.683ZM578.902 149.683H569.101C568.587 149.683 568.163 149.26 568.163 148.746C568.163 148.232 568.587 147.808 569.101 147.808H578.902C579.416 147.808 579.839 148.232 579.839 148.746C579.839 149.26 579.416 149.683 578.902 149.683Z" fill="#2E3338"/>
<path d="M669.131 183.805C650.377 166.624 629.293 162.601 625.119 161.965C624.121 164.779 620.37 174.7 615.258 179.479C614.865 179.842 614.29 179.812 613.927 179.419C613.564 179.026 613.594 178.451 613.988 178.088C619.493 172.976 623.576 160.755 623.607 160.634C624.847 160.03 649.197 162.933 669.796 182.171C670.159 182.534 670.189 183.109 669.826 183.502C669.645 183.684 669.403 183.805 669.131 183.805Z" fill="#2E3338"/>
<path d="M641.152 205.583C637.855 205.583 634.437 203.708 633.046 201.863C632.108 200.623 632.169 199.624 632.411 198.989C632.804 197.931 633.499 196.751 634.346 195.359C636.464 191.851 639.368 187.041 640.003 179.388C640.033 178.874 640.426 178.481 641.031 178.541C641.546 178.572 641.939 179.056 641.878 179.57C641.183 187.646 638.037 192.879 635.95 196.327C635.163 197.628 634.498 198.717 634.195 199.624C635.708 202.256 638.853 203.829 641.606 203.678C642.181 203.587 642.574 204.041 642.604 204.555C642.635 205.069 642.241 205.523 641.727 205.553C641.546 205.553 641.364 205.553 641.183 205.553L641.152 205.583Z" fill="#2E3338"/>
<path d="M641.877 336.62C641.363 336.62 640.939 336.196 640.939 335.682V266.867C640.939 266.353 641.363 265.929 641.877 265.929C642.391 265.929 642.815 266.353 642.815 266.867V335.682C642.815 336.196 642.391 336.62 641.877 336.62Z" fill="#2E3338"/>
<path d="M536.22 184.017C524.907 175.759 519.916 166.866 522.88 161.179C524.272 158.517 526.419 157.156 530.11 156.581C530.624 156.491 531.108 156.854 531.199 157.368C531.289 157.882 530.926 158.366 530.412 158.457C527.357 158.941 525.663 159.969 524.574 162.087C522.094 166.836 527.024 174.972 536.825 182.353C537.248 182.655 537.309 183.26 537.006 183.684C536.825 183.926 536.553 184.047 536.25 184.047L536.22 184.017Z" fill="#2E3338"/>
<path d="M565.502 196.962C559.361 196.145 552.858 193.907 545.568 190.065C545.114 189.823 544.66 189.581 544.237 189.339C543.783 189.097 543.602 188.522 543.874 188.069C544.116 187.615 544.691 187.464 545.144 187.706C545.568 187.948 546.022 188.19 546.445 188.402C553.554 192.122 559.845 194.33 565.653 195.086C566.167 195.147 566.53 195.631 566.47 196.145C566.409 196.629 566.016 196.962 565.532 196.962H565.502Z" fill="#2E3338"/>
<path d="M582.106 190.34C581.501 190.279 581.108 189.825 581.168 189.281C581.592 185.5 578.839 180.63 573.485 175.548C573.122 175.185 573.092 174.58 573.455 174.217C573.818 173.824 574.423 173.824 574.786 174.187C580.593 179.692 583.528 185.137 583.044 189.493C582.983 189.977 582.59 190.34 582.106 190.34Z" fill="#2E3338"/>
<path d="M650.771 212.813C649.652 211.179 647.988 203.224 652.344 202.105C654.249 201.651 655.399 202.256 656.004 202.891C657.607 204.464 657.607 207.519 657.093 209.637C656.972 210.151 656.488 210.453 655.973 210.332C655.459 210.211 655.157 209.697 655.278 209.213C655.701 207.428 655.641 205.13 654.703 204.222C654.552 204.071 654.068 203.587 652.797 203.92C650.771 204.434 651.164 209.334 651.678 211.633C651.799 212.147 651.466 212.631 650.952 212.752C650.892 212.752 650.801 212.752 650.74 212.752L650.771 212.813Z" fill="#2E3338"/>
<path d="M658.333 192.698C658.121 192.698 650.68 190.853 650.68 190.853C650.377 189.159 657.002 184.531 657.002 184.531C657.425 184.259 658.03 184.349 658.303 184.773C658.605 185.196 658.484 185.801 658.061 186.073L653.13 189.522L658.545 190.853C659.059 190.974 659.361 191.488 659.24 192.002C659.15 192.426 658.756 192.728 658.333 192.728V192.698Z" fill="#2E3338"/>
<path d="M413.371 138.864C413.371 143.82 409.363 147.828 404.407 147.828C399.451 147.828 395.443 143.82 395.443 138.864C395.443 133.908 399.451 129.9 404.407 129.9C409.363 129.9 413.371 133.908 413.371 138.864Z" fill="url(#paint1_linear_3197_41181)" stroke="#2E3338" stroke-width="1.55118"/>
<path d="M418.293 160.733H390.948C386.532 160.733 382.963 157.163 382.963 152.747V125.403C382.963 120.986 386.532 117.417 390.948 117.417H418.293C422.709 117.417 426.279 120.986 426.279 125.403V152.747C426.279 157.163 422.709 160.733 418.293 160.733ZM390.948 119.292C387.591 119.292 384.838 122.045 384.838 125.403V152.747C384.838 156.105 387.591 158.857 390.948 158.857H418.293C421.651 158.857 424.403 156.105 424.403 152.747V125.403C424.403 122.045 421.651 119.292 418.293 119.292H390.948Z" fill="#2E3338"/>
<defs>
<linearGradient id="paint0_linear_3197_41181" x1="632.7" y1="163.69" x2="632.7" y2="451.776" gradientUnits="userSpaceOnUse">
<stop stop-color="#3294EE"/>
<stop offset="1" stop-color="#0066FF"/>
</linearGradient>
<linearGradient id="paint1_linear_3197_41181" x1="404.407" y1="129.124" x2="404.407" y2="148.604" gradientUnits="userSpaceOnUse">
<stop stop-color="#3294EE"/>
<stop offset="1" stop-color="#0066FF"/>
</linearGradient>
</defs>
</svg>
